<?xml version="1.0" standalone="no"?>
<!DOCTYPE svg PUBLIC "-//W3C//DTD SVG 20010904//EN"
 "http://www.w3.org/TR/2001/REC-SVG-20010904/DTD/svg10.dtd">
<svg version="1.0" xmlns="http://www.w3.org/2000/svg"
 width="1024.000000pt" height="1024.000000pt" viewBox="0 0 1024.000000 1024.000000"
 preserveAspectRatio="xMidYMid meet">
<metadata>
Created by potrace 1.11, written by Peter Selinger 2001-2013
</metadata>
<g transform="translate(0.000000,1024.000000) scale(0.100000,-0.100000)"
fill="#000000" stroke="none">
<path d="M5400 9763 c0 -6 -13 -9 -30 -7 -19 2 -30 -1 -30 -9 0 -8 -4 -7 -10
3 -8 12 -10 12 -10 1 0 -10 -3 -11 -14 -2 -10 8 -16 9 -21 1 -3 -5 -29 -10
-56 -10 -31 0 -48 -4 -44 -10 3 -6 -1 -7 -9 -4 -10 4 -16 1 -16 -7 0 -11 -3
-11 -10 1 -5 8 -10 10 -10 5 0 -6 -14 -12 -32 -13 -18 -2 -36 -8 -40 -15 -6
-9 -8 -8 -8 2 0 11 -5 9 -22 -5 -12 -10 -18 -13 -14 -6 4 6 3 12 -2 12 -6 0
-12 -7 -16 -15 -3 -9 -12 -12 -22 -8 -12 4 -15 3 -10 -5 5 -8 0 -12 -13 -12
-12 0 -21 -5 -21 -11 0 -5 -4 -8 -9 -5 -5 4 -11 1 -13 -4 -2 -6 -13 -12 -25
-13 -12 0 -20 -4 -18 -7 4 -7 -62 -42 -69 -37 -1 1 -10 -4 -18 -11 -9 -7 -26
-15 -39 -17 -12 -3 -26 -10 -31 -17 -6 -10 -8 -10 -8 -1 0 8 -9 11 -22 9 -13
-2 -32 4 -42 13 -16 13 -18 13 -11 1 7 -12 6 -13 -6 -4 -17 15 -149 16 -166 2
-9 -7 -13 -7 -13 1 0 8 -6 7 -16 -3 -8 -9 -20 -14 -25 -10 -6 3 -17 0 -26 -8
-14 -11 -16 -11 -9 2 5 9 2 8 -7 -2 -11 -14 -16 -15 -27 -5 -10 9 -11 9 -6 0
4 -7 2 -14 -3 -14 -35 -4 -102 -39 -96 -49 3 -6 -2 -10 -12 -10 -10 0 -34 -14
-53 -30 -19 -16 -39 -30 -43 -30 -5 0 -5 -4 -2 -10 3 -5 -1 -10 -9 -10 -8 0
-24 -12 -35 -26 -12 -15 -21 -24 -21 -20 0 4 -6 1 -14 -6 -8 -7 -12 -16 -9
-20 2 -5 0 -8 -5 -8 -5 0 -12 -9 -15 -21 -3 -12 -10 -18 -16 -15 -5 4 -13 1
-17 -5 -4 -8 -9 -7 -15 2 -6 10 -9 11 -9 2 0 -7 -11 -13 -25 -13 -14 0 -25 -5
-25 -11 0 -8 -5 -8 -15 1 -12 10 -16 9 -20 -2 -3 -7 -18 -15 -33 -16 -15 -1
-33 -10 -39 -19 -7 -9 -13 -12 -13 -5 0 7 -13 4 -36 -8 -20 -12 -32 -15 -28
-8 4 7 -3 4 -15 -7 -13 -11 -25 -19 -27 -17 -9 5 -35 1 -31 -6 3 -4 -9 -8 -26
-9 -50 -4 -57 -6 -57 -15 0 -4 -5 -8 -11 -8 -13 0 -82 -31 -89 -40 -3 -3 -20
-12 -37 -19 -18 -8 -33 -17 -33 -22 0 -5 -7 -9 -15 -9 -7 0 -19 -8 -24 -17 -6
-10 -11 -15 -11 -10 0 12 -100 -88 -100 -101 0 -6 -8 -16 -17 -21 -14 -8 -15
-10 -3 -11 10 0 11 -3 4 -8 -17 -11 -44 -69 -36 -77 4 -5 3 -6 -3 -3 -15 9
-30 -14 -30 -44 1 -15 -3 -24 -7 -22 -4 3 -8 -1 -8 -9 0 -16 -41 -57 -58 -57
-7 0 -12 -5 -12 -11 0 -5 -4 -7 -10 -4 -5 3 -10 3 -10 -2 0 -4 -15 -9 -33 -10
-29 -3 -64 -8 -77 -13 -3 -1 -8 -2 -12 -1 -5 0 -8 -3 -8 -8 0 -5 -13 -11 -29
-14 -16 -3 -36 -13 -45 -22 -9 -9 -16 -14 -16 -10 0 3 -10 -3 -22 -14 -11 -11
-26 -17 -32 -14 -6 3 -8 3 -5 -1 4 -4 -8 -22 -27 -40 -19 -18 -31 -35 -28 -39
3 -3 -4 -8 -15 -12 -12 -3 -19 -10 -16 -15 3 -5 1 -11 -5 -15 -5 -3 -10 -15
-10 -26 0 -11 -4 -17 -10 -14 -5 3 -10 -3 -10 -14 0 -11 -5 -23 -11 -26 -6 -4
-8 -13 -5 -20 3 -8 1 -15 -4 -17 -5 -2 -10 -23 -11 -48 -1 -25 -5 -49 -8 -55
-10 -18 -9 -35 1 -29 6 4 6 -1 -1 -13 -7 -14 -7 -24 2 -33 9 -10 9 -11 0 -6
-7 4 -13 2 -13 -3 0 -6 6 -11 13 -11 8 0 7 -4 -3 -10 -11 -7 -11 -10 -2 -10 7
0 11 -4 8 -9 -3 -5 -22 -8 -41 -7 -19 1 -35 -2 -35 -7 0 -4 -4 -6 -9 -2 -5 3
-12 1 -16 -5 -4 -6 -11 -8 -16 -5 -5 4 -9 2 -9 -4 0 -5 -9 -8 -20 -6 -11 2
-20 0 -20 -6 0 -5 -7 -9 -15 -9 -8 0 -15 -5 -15 -12 0 -6 -3 -8 -7 -5 -3 4
-12 2 -20 -4 -7 -6 -13 -8 -13 -5 0 4 -10 1 -22 -6 -13 -7 -27 -11 -31 -10 -5
1 -6 -2 -2 -8 3 -5 -2 -13 -12 -17 -37 -14 -121 -122 -106 -137 3 -3 0 -6 -7
-6 -7 0 -10 -3 -7 -7 4 -3 2 -12 -4 -20 -9 -10 -8 -17 2 -30 10 -11 10 -14 2
-9 -8 4 -13 2 -13 -8 0 -8 5 -18 11 -22 8 -5 8 -8 0 -13 -7 -5 -5 -14 8 -28
11 -11 17 -24 14 -27 -4 -3 -1 -6 6 -6 7 0 9 -4 6 -10 -3 -5 1 -10 9 -10 8 0
18 -5 22 -12 5 -7 2 -8 -7 -3 -11 6 -12 5 -2 -5 10 -11 8 -20 -12 -46 -14 -18
-25 -40 -25 -48 0 -9 -4 -16 -9 -16 -5 0 -13 -10 -17 -22 -4 -12 -17 -31 -30
-41 -13 -10 -24 -24 -24 -32 0 -7 -7 -18 -15 -25 -8 -6 -14 -15 -13 -18 1 -4
-3 -17 -10 -28 -6 -12 -8 -24 -5 -28 3 -3 1 -6 -6 -6 -7 0 -10 -4 -6 -9 3 -5
0 -13 -6 -16 -5 -4 -8 -13 -5 -20 3 -8 0 -16 -7 -19 -8 -3 -8 -5 2 -5 11 -1
11 -4 1 -16 -10 -11 -11 -52 -6 -168 8 -183 10 -199 19 -214 4 -6 4 -14 0 -16
-10 -7 -10 -188 0 -204 5 -7 5 -13 0 -13 -4 0 -8 -16 -8 -35 0 -19 5 -35 10
-35 7 0 7 -3 0 -8 -12 -9 -14 -92 -2 -92 4 0 5 -6 0 -12 -10 -17 -11 -58 -1
-85 4 -12 4 -24 0 -27 -9 -5 -9 -73 0 -82 4 -3 4 -13 1 -22 -5 -11 -3 -13 7
-7 9 6 11 4 5 -6 -12 -19 -14 -49 -3 -55 4 -3 6 -10 2 -15 -3 -5 -7 -23 -9
-40 -3 -21 -1 -28 8 -23 9 5 9 3 0 -7 -15 -16 -17 -33 -3 -24 6 3 10 1 10 -4
0 -6 -4 -11 -8 -11 -10 0 -9 -30 2 -48 4 -7 2 -12 -5 -12 -8 0 -8 -4 -1 -12
13 -16 13 -30 1 -45 -7 -7 -6 -14 2 -19 8 -5 9 -3 4 6 -5 9 -4 11 4 6 6 -4 8
-13 4 -19 -10 -16 -10 -37 -1 -63 4 -12 2 -26 -5 -33 -9 -9 -9 -14 2 -20 11
-7 11 -9 0 -14 -10 -4 -10 -6 -1 -6 6 -1 12 -6 12 -12 0 -5 -6 -7 -12 -3 -10
6 -10 4 0 -7 6 -7 12 -23 12 -36 0 -13 5 -23 12 -23 6 0 9 -3 5 -6 -3 -4 0
-22 8 -40 10 -25 11 -34 2 -35 -7 0 -3 -4 8 -9 12 -5 14 -9 6 -9 -11 -1 -11
-4 2 -19 9 -10 17 -32 19 -50 1 -18 6 -32 10 -32 4 0 8 -19 8 -42 0 -33 3 -40
11 -28 9 12 10 11 6 -7 -3 -13 -2 -23 2 -23 4 0 8 -6 8 -12 3 -47 16 -104 26
-117 10 -12 9 -13 -3 -6 -13 8 -13 6 -2 -7 18 -23 23 -105 7 -112 -7 -2 -18 1
-24 7 -6 6 -11 8 -11 4 0 -4 -9 -3 -20 3 -15 8 -20 8 -20 -2 0 -8 -3 -9 -8 -3
-9 12 -32 13 -51 1 -10 -6 -12 -5 -7 2 4 7 3 12 -3 12 -5 0 -13 -5 -16 -10 -4
-6 -12 -10 -18 -9 -21 4 -67 -13 -61 -22 3 -5 -2 -9 -10 -9 -8 0 -22 -7 -30
-16 -9 -8 -20 -13 -26 -9 -5 3 -12 -6 -16 -20 -3 -13 -10 -23 -15 -20 -11 7
-30 -30 -21 -40 4 -5 2 -5 -4 -2 -12 7 -57 -67 -47 -77 4 -4 0 -4 -9 -1 -11 4
-15 1 -15 -12 0 -45 -4 -64 -12 -59 -12 8 -8 -27 4 -36 6 -4 2 -8 -7 -8 -10 0
-18 -5 -18 -11 0 -5 5 -7 12 -3 8 5 9 2 3 -12 -14 -32 -12 -415 2 -410 7 3 10
-1 6 -9 -3 -8 -10 -12 -17 -8 -7 4 -7 1 1 -9 7 -8 10 -18 6 -21 -3 -4 -2 -7 4
-7 6 0 10 -10 10 -22 1 -49 3 -59 14 -52 8 4 9 0 4 -15 -4 -12 -2 -21 4 -21 6
0 11 -7 11 -16 0 -8 7 -23 16 -31 13 -13 13 -17 2 -24 -10 -7 -9 -9 5 -9 10 0
15 -5 12 -10 -3 -6 -1 -10 4 -10 6 0 11 -7 11 -15 0 -8 8 -24 17 -35 10 -11
18 -28 18 -38 0 -9 5 -16 11 -15 5 1 11 -9 12 -23 1 -13 2 -35 3 -49 1 -14 4
-25 8 -25 5 0 11 -39 14 -92 1 -10 5 -18 10 -18 4 0 6 -4 2 -9 -3 -5 -1 -12 5
-16 6 -4 8 -10 5 -15 -3 -5 1 -14 8 -22 8 -7 13 -23 12 -35 -1 -12 2 -20 7
-17 4 3 8 -4 8 -15 0 -12 5 -21 10 -21 6 0 10 -9 10 -21 0 -11 5 -17 10 -14 6
3 10 -1 10 -9 0 -9 9 -25 20 -36 11 -11 20 -24 20 -30 0 -5 7 -10 16 -10 8 0
12 -5 9 -10 -3 -6 2 -13 11 -17 23 -9 54 -40 47 -47 -4 -3 1 -6 11 -6 19 0 46
-23 46 -39 0 -6 6 -11 14 -11 7 0 25 -18 40 -40 55 -83 112 -143 128 -134 6 4
8 3 5 -3 -4 -6 1 -17 10 -24 14 -12 16 -12 8 1 -5 9 1 7 14 -5 18 -15 24 -16
30 -6 6 10 10 10 12 2 5 -15 109 -21 109 -6 0 5 4 4 9 -3 4 -8 11 -13 15 -13
18 3 24 0 30 -15 3 -8 2 -12 -4 -9 -5 3 -7 -9 -4 -27 8 -58 12 -83 15 -85 1
-2 2 -6 3 -10 1 -5 5 -14 10 -21 4 -7 3 -19 -5 -28 -9 -12 -9 -13 2 -9 10 4
15 -1 15 -15 0 -11 -3 -20 -6 -20 -4 0 -7 -7 -7 -15 0 -8 5 -15 10 -15 5 0 5
-6 -1 -13 -8 -9 -6 -16 8 -25 11 -7 19 -22 19 -35 0 -12 2 -35 6 -52 3 -16 7
-39 7 -50 0 -11 7 -35 15 -53 8 -19 12 -44 9 -57 -3 -13 0 -29 6 -37 7 -7 15
-24 16 -38 2 -14 11 -33 19 -42 9 -10 13 -18 8 -18 -4 0 -2 -7 5 -15 7 -8 9
-15 4 -15 -5 0 -1 -5 9 -11 9 -5 17 -19 17 -29 0 -11 5 -20 10 -20 6 0 10 -11
10 -25 0 -14 4 -25 9 -25 8 0 26 -66 23 -83 -1 -4 4 -7 12 -7 10 0 13 -7 11
-20 -2 -12 2 -23 10 -26 7 -3 12 -11 9 -18 -3 -7 11 -27 30 -44 43 -38 97
-112 90 -123 -3 -5 -1 -9 5 -9 5 0 13 -10 17 -22 4 -13 20 -39 35 -59 16 -20
29 -42 29 -48 0 -6 5 -11 10 -11 6 0 10 -7 10 -15 0 -8 4 -15 9 -15 5 0 12
-11 15 -25 4 -14 11 -25 17 -25 6 0 7 -5 4 -10 -3 -5 -1 -10 5 -10 6 0 9 -4 5
-9 -3 -5 2 -16 10 -24 8 -9 15 -19 15 -24 0 -5 27 -33 61 -63 34 -30 67 -61
74 -68 8 -6 16 -12 19 -12 3 0 15 -8 25 -18 38 -33 49 -41 55 -35 3 3 8 -2 12
-11 3 -9 12 -16 18 -16 7 0 18 -11 24 -25 6 -14 18 -25 26 -25 8 0 18 -9 21
-21 4 -11 9 -18 12 -15 6 6 93 -82 93 -95 0 -4 8 -10 18 -13 11 -4 25 -18 32
-31 7 -14 16 -23 18 -20 3 3 17 -8 32 -23 15 -16 34 -32 44 -35 9 -4 16 -14
16 -23 0 -10 3 -14 7 -11 9 9 34 -13 27 -24 -3 -5 2 -6 10 -3 10 4 16 1 16
-10 0 -10 5 -13 17 -9 10 4 14 2 10 -4 -4 -7 7 -13 27 -17 18 -4 46 -18 62
-31 16 -14 34 -25 40 -25 7 0 14 -7 18 -15 3 -8 15 -15 26 -15 11 0 20 -5 20
-12 0 -6 3 -9 6 -5 4 3 15 -4 26 -16 11 -12 17 -16 13 -9 -3 6 -1 12 4 12 6 0
11 -4 11 -10 0 -5 9 -10 21 -10 13 0 18 -4 13 -13 -4 -6 -4 -9 1 -5 4 4 15 2
23 -5 13 -10 14 -9 7 3 -7 12 -6 13 6 3 9 -7 24 -14 35 -16 11 -1 36 -15 57
-31 21 -16 51 -29 66 -30 16 -1 27 -5 24 -10 -3 -5 6 -7 21 -4 14 3 26 1 26
-3 0 -5 6 -9 13 -9 7 0 23 -9 35 -20 12 -12 22 -17 22 -13 0 4 5 0 11 -9 5
-10 19 -18 29 -18 11 0 20 -3 20 -8 0 -4 14 -13 32 -21 17 -8 39 -22 50 -33
10 -10 25 -18 33 -18 8 0 15 -4 15 -8 0 -5 7 -9 15 -10 8 -1 22 -3 30 -4 8 -1
15 -5 15 -10 0 -4 10 -8 23 -8 13 0 28 -5 35 -12 7 -7 12 -8 12 -3 0 4 10 0
22 -11 12 -10 18 -14 15 -7 -5 8 -1 8 17 0 13 -7 23 -14 21 -17 -2 -3 7 -7 20
-8 38 -3 49 -6 57 -17 5 -6 8 -5 8 3 0 7 5 10 10 7 6 -4 8 -9 6 -13 -2 -4 10
-8 27 -9 59 -2 114 -10 125 -17 5 -3 13 0 15 6 4 10 6 9 6 -1 1 -11 4 -11 18
0 11 10 14 10 9 2 -4 -7 -3 -13 3 -13 5 0 13 5 16 10 4 7 12 7 18 2 7 -4 19
-8 27 -7 8 1 23 -3 34 -8 13 -7 16 -6 11 3 -5 9 -3 9 11 2 11 -5 28 -8 39 -6
28 6 46 6 78 1 15 -2 30 -1 33 4 2 4 11 6 19 3 8 -4 12 -11 8 -18 -4 -6 1 -5
10 2 9 8 21 11 26 8 5 -4 12 -2 16 4 4 6 13 7 23 1 9 -4 26 -6 37 -4 25 5 33
5 68 0 15 -2 30 0 33 4 3 5 14 5 24 -1 13 -7 21 -7 25 0 4 6 10 8 15 5 5 -3
11 -2 14 3 2 4 24 9 47 11 23 1 50 6 61 12 13 7 18 6 18 -3 0 -6 7 -3 16 8 8
10 12 12 8 4 -7 -13 -5 -13 9 -2 9 8 33 15 54 16 21 1 44 5 51 10 7 4 17 4 22
1 6 -3 10 -3 10 2 0 4 11 13 25 20 14 6 23 7 19 2 -3 -5 0 -9 5 -9 6 0 11 4
11 10 0 5 7 6 17 3 10 -4 14 -2 10 4 -3 5 3 9 16 8 12 -1 28 2 35 8 6 5 12 7
12 4 0 -3 16 1 35 9 19 8 35 11 35 7 0 -4 7 2 15 13 8 10 15 16 15 11 0 -4 27
6 60 23 33 17 60 27 60 23 0 -5 5 0 11 10 6 9 14 15 20 12 5 -4 9 -1 9 4 0 6
7 11 15 11 9 0 18 7 22 16 5 13 7 13 14 2 5 -8 9 -9 9 -2 0 11 46 29 63 26 4
-1 7 3 7 9 0 5 5 7 10 4 6 -3 10 -1 10 5 0 6 5 8 10 5 6 -3 10 -1 10 5 0 6 4
9 9 5 6 -3 15 4 21 15 6 11 15 20 20 20 16 0 49 33 43 42 -3 5 4 12 16 15 12
3 21 9 21 13 0 4 23 32 52 61 28 30 48 47 44 39 -5 -8 8 3 28 25 19 22 35 43
36 47 0 4 15 23 34 42 19 19 32 37 29 40 -4 3 -1 6 5 6 6 0 14 9 17 20 4 12
11 17 18 14 7 -4 9 -4 5 1 -8 9 48 95 62 95 5 0 6 7 3 17 -4 11 -3 14 5 9 7
-4 12 -2 12 3 0 6 0 13 0 16 0 9 40 45 51 45 5 0 7 5 4 10 -3 6 1 10 10 10 9
0 13 4 10 10 -3 5 -2 10 2 10 16 0 79 63 105 105 14 22 36 52 49 66 13 14 42
47 63 72 22 26 46 47 53 47 7 0 13 6 13 13 0 14 56 67 65 61 3 -2 3 -1 0 3 -3
3 0 12 6 19 5 7 12 25 15 40 3 16 9 33 14 39 6 7 5 16 -3 24 -9 10 -9 12 3 9
8 -2 15 4 16 12 0 8 2 18 4 23 1 4 4 12 5 17 1 6 4 12 5 15 1 3 4 10 5 15 1 6
3 11 5 13 1 1 3 10 5 20 2 10 9 25 17 34 7 9 12 24 10 34 -2 10 5 30 15 46 10
15 17 28 16 30 -7 8 -2 24 6 19 4 -3 7 8 5 25 -2 19 1 32 10 35 8 3 13 14 11
25 -2 10 0 19 5 19 4 0 6 8 3 19 -3 10 1 22 8 26 8 6 10 4 4 -6 -5 -8 -4 -11
0 -6 9 7 11 22 16 110 1 26 7 47 13 47 6 0 5 4 -3 9 -9 6 -10 11 -2 15 6 4 11
12 11 17 0 6 -6 7 -12 3 -9 -6 -9 -3 0 9 8 9 11 21 7 27 -3 5 0 10 7 10 10 0
10 2 -1 9 -11 7 -11 9 0 14 10 4 8 6 -4 6 -10 1 -15 6 -12 11 4 6 9 8 13 6 4
-2 8 33 9 78 3 96 4 107 14 100 4 -2 10 0 14 6 4 6 11 8 16 5 5 -4 9 0 9 8 0
8 13 24 30 37 16 12 27 27 24 31 -3 5 0 9 6 9 6 0 8 5 5 10 -3 6 0 13 7 15 8
3 27 28 43 55 16 27 32 47 36 44 4 -2 10 5 14 16 4 11 10 18 15 15 5 -3 11 3
15 14 3 11 13 22 21 25 9 3 12 11 8 18 -5 8 -2 9 9 5 11 -4 14 -2 11 7 -3 7 2
20 10 29 9 9 16 20 16 25 0 5 7 15 15 22 9 7 13 15 11 18 -3 3 3 17 14 32 11
16 20 38 20 50 0 13 4 19 11 14 8 -4 8 0 0 15 -8 15 -9 21 -1 21 6 0 9 4 5 9
-3 5 -1 12 5 16 5 3 10 17 10 30 0 13 5 27 10 30 8 5 7 11 -1 21 -9 12 -9 13
3 9 12 -5 14 0 10 21 -3 15 -1 24 4 21 5 -3 10 6 10 19 1 13 -2 22 -6 19 -4
-3 0 11 10 31 10 19 17 44 15 55 -2 10 0 19 5 19 5 0 7 9 5 20 -2 11 0 18 6
15 8 -6 12 16 12 68 0 9 4 17 8 17 5 0 9 11 9 24 0 14 5 28 10 31 6 3 10 11
10 16 0 6 -6 7 -12 3 -9 -5 -9 -3 1 9 7 9 11 28 9 42 -3 14 -1 25 3 25 5 0 6
6 3 14 -3 8 -1 16 4 20 5 3 8 28 6 55 -1 32 2 49 8 45 6 -4 7 0 1 12 -5 11 -9
37 -8 59 1 22 -3 45 -7 52 -5 6 -5 14 0 17 5 3 7 31 5 63 -2 32 -4 84 -6 116
-1 31 -5 57 -10 57 -4 0 -5 5 -2 10 4 6 1 18 -7 27 -11 14 -11 16 1 8 11 -6
12 -5 5 6 -4 8 -9 20 -11 28 -1 8 -8 18 -15 22 -10 7 -10 9 2 9 12 0 12 2 2 9
-8 4 -15 23 -16 42 -4 50 -5 51 -18 43 -7 -4 -8 -3 -4 5 4 6 2 18 -4 26 -7 8
-9 15 -5 15 5 0 0 10 -11 22 -10 12 -13 18 -6 14 11 -7 11 -4 1 12 -7 12 -16
19 -20 16 -4 -2 -15 3 -23 12 -12 11 -16 12 -16 2 0 -10 -3 -9 -10 2 -8 12
-10 12 -10 1 0 -10 -3 -11 -13 -2 -8 6 -16 9 -18 6 -3 -2 -20 -7 -39 -10 -19
-3 -37 -10 -38 -16 -2 -5 -8 -7 -12 -4 -5 3 -18 -3 -30 -15 -11 -11 -24 -20
-30 -20 -5 0 -10 -6 -10 -14 0 -8 -8 -14 -19 -13 -19 1 -24 36 -6 49 6 5 6 8
-2 8 -15 0 -11 23 7 46 9 11 10 15 3 10 -20 -11 -15 8 6 31 11 12 17 23 14 27
-3 3 -1 11 5 19 6 7 12 36 14 64 2 28 6 49 11 46 4 -2 7 9 7 24 0 16 6 35 13
42 9 11 9 12 0 7 -9 -5 -11 -2 -7 8 3 9 11 13 18 9 6 -3 8 -3 4 1 -8 9 11 68
20 62 4 -2 8 12 10 32 1 21 8 42 15 47 12 10 19 29 20 53 0 6 4 12 9 12 4 0 8
9 8 21 0 11 5 30 12 42 12 22 17 38 20 70 1 9 6 17 11 17 4 0 5 5 2 10 -3 6
-1 10 5 10 7 0 10 6 7 14 -3 7 0 19 6 25 6 6 7 11 1 11 -5 0 -3 4 5 9 16 10
42 81 35 93 -3 4 0 8 6 8 6 0 8 5 4 12 -4 6 0 16 8 22 8 6 16 14 16 19 1 4 9
23 17 43 8 20 15 42 15 49 0 8 6 16 13 18 9 4 9 6 -1 6 -9 1 -8 9 5 28 10 15
17 28 16 30 -7 8 -2 24 5 19 5 -3 9 1 9 9 0 8 -5 11 -11 8 -5 -4 1 9 14 27 13
18 17 30 9 25 -7 -5 -5 2 6 15 12 14 14 20 5 15 -12 -7 -13 -6 -3 7 7 8 14 28
15 44 1 16 7 33 13 37 7 6 6 10 -3 14 -10 4 -10 8 0 21 11 13 11 14 -2 7 -12
-7 -13 -6 -4 6 14 18 14 52 0 61 -7 5 -4 8 7 8 15 0 16 3 7 20 -8 15 -8 20 2
20 9 0 9 3 -2 10 -12 8 -12 10 -1 10 9 0 10 4 4 13 -5 6 -8 24 -7 40 2 16 -2
27 -9 27 -7 0 -6 4 3 10 12 8 12 10 1 10 -10 0 -11 3 -2 14 8 10 9 16 1 21 -5
3 -10 11 -10 16 0 6 6 7 13 3 9 -6 9 -4 -1 8 -10 13 -10 17 0 21 10 4 10 6 -1
6 -11 1 -11 4 0 18 10 11 10 14 2 9 -10 -5 -13 8 -13 58 0 36 -5 68 -10 71 -8
5 -7 11 1 21 9 11 9 14 -1 14 -7 0 -10 8 -7 20 3 11 2 20 -2 20 -4 0 -8 10 -8
23 -4 55 -13 115 -21 138 -11 28 -12 32 -12 60 0 11 -3 18 -8 15 -4 -2 -8 14
-9 36 -1 22 -10 49 -20 61 -10 11 -12 17 -5 13 16 -10 15 6 -3 30 -8 10 -15
27 -15 37 0 11 -4 15 -12 11 -8 -5 -9 -2 -5 9 3 9 0 23 -8 31 -8 7 -12 16 -9
19 3 3 0 16 -7 29 -7 12 -12 27 -11 31 1 4 -5 10 -13 13 -8 3 -13 10 -10 14 3
5 -1 14 -8 22 -8 7 -13 21 -11 31 1 9 -2 17 -7 17 -6 0 -7 5 -4 10 3 6 -1 10
-9 10 -14 0 -21 12 -13 24 1 2 -7 13 -17 25 -11 12 -16 21 -13 21 4 0 -1 9
-10 19 -9 11 -21 17 -27 14 -6 -4 -4 2 4 12 8 10 10 16 4 12 -7 -4 -17 0 -24
8 -7 8 -10 15 -7 15 3 0 -5 12 -18 26 -14 15 -25 33 -25 41 0 8 -4 11 -10 8
-5 -3 -10 -1 -10 5 0 6 -13 24 -30 40 -16 16 -30 34 -30 40 0 5 -7 10 -15 10
-8 0 -15 5 -15 10 0 13 -68 80 -81 80 -5 0 -9 6 -9 13 0 14 -47 42 -63 38 -5
-1 -6 3 -2 9 4 6 -7 15 -24 21 -17 6 -28 15 -25 20 3 5 1 9 -3 9 -11 0 -16 39
-11 85 1 8 7 15 15 15 7 0 13 7 13 16 0 9 9 28 20 44 11 15 17 30 13 34 -3 3
-1 6 6 6 8 0 11 7 7 15 -3 8 -2 15 2 15 8 0 32 51 37 78 1 9 7 16 12 15 6 -1
10 12 11 29 0 17 4 34 9 37 8 6 9 10 12 67 1 24 5 33 13 28 7 -4 8 -3 4 5 -4
7 -9 53 -10 104 -1 51 -5 97 -9 104 -4 6 -3 14 3 18 6 3 7 14 2 23 -4 9 -7 35
-6 57 0 22 -3 46 -9 53 -6 8 -5 12 4 12 9 0 10 3 4 8 -6 4 -10 16 -10 27 0 11
-3 25 -7 31 -4 6 -6 20 -3 32 2 12 0 22 -4 22 -4 0 -6 14 -3 30 3 18 0 30 -7
30 -6 0 -11 14 -11 30 0 17 -4 30 -9 30 -5 0 -8 8 -7 17 2 10 -3 24 -11 31 -7
8 -11 18 -8 23 4 5 3 9 -2 9 -4 0 -14 14 -22 31 -7 16 -25 42 -40 56 -14 14
-19 22 -11 18 8 -5 4 3 -10 17 -80 80 -160 170 -160 180 0 6 -3 8 -6 5 -4 -4
-26 14 -49 38 -23 25 -47 45 -54 45 -6 0 -14 7 -17 15 -5 13 -9 13 -22 3 -12
-10 -14 -10 -8 0 12 20 -49 15 -65 -5 -7 -10 -10 -15 -5 -11 7 6 27 -7 61 -39
8 -7 21 -13 29 -13 9 0 15 -3 14 -7 -4 -11 59 -73 66 -66 3 4 6 -1 6 -10 0 -9
6 -20 13 -24 8 -4 17 -16 20 -26 4 -10 11 -15 17 -12 5 3 10 -3 10 -15 0 -12
5 -18 10 -15 6 3 10 -1 10 -9 0 -8 5 -18 12 -22 7 -5 8 -3 3 6 -5 9 -4 11 3 6
7 -4 12 -14 12 -22 0 -9 6 -22 13 -29 30 -34 35 -43 30 -49 -4 -3 -1 -6 5 -6
7 0 12 -7 12 -16 0 -9 10 -30 22 -47 12 -17 17 -27 10 -23 -7 4 -12 3 -12 -3
0 -5 4 -11 9 -13 6 -1 11 -14 13 -28 2 -14 6 -29 9 -35 3 -5 7 -28 8 -49 1
-21 7 -48 12 -59 8 -14 8 -18 0 -13 -8 5 -8 0 -1 -19 12 -32 12 -38 2 -31 -5
3 -9 -1 -9 -9 0 -8 3 -15 7 -15 3 0 5 -21 4 -47 -3 -65 -3 -65 -11 -60 -5 3
-9 -18 -10 -46 -2 -95 -7 -137 -16 -137 -4 0 -6 -4 -2 -10 3 -5 1 -17 -4 -27
-9 -17 -23 -52 -25 -63 -2 -6 -56 -60 -60 -60 -2 0 -2 21 0 48 6 76 9 92 15
92 7 0 8 7 11 100 2 41 8 78 13 82 7 5 7 8 0 8 -5 0 -10 24 -9 53 0 28 -4 58
-9 65 -5 6 -7 12 -3 12 4 0 0 13 -9 30 -8 16 -15 38 -15 50 0 11 -7 23 -15 26
-8 4 -13 10 -10 14 2 4 -4 18 -15 30 -11 13 -20 27 -20 32 0 5 -4 6 -10 3 -5
-3 -10 -1 -10 5 0 15 -46 60 -61 60 -7 0 -10 3 -6 6 9 9 -19 35 -35 32 -6 -2
-12 4 -13 12 -1 8 -6 14 -13 12 -7 -1 -12 3 -12 9 0 5 -4 8 -9 5 -4 -3 -19 3
-31 14 -12 11 -26 17 -30 15 -4 -3 -11 2 -14 11 -3 9 -13 14 -20 11 -8 -3 -17
1 -20 9 -3 9 -10 13 -15 9 -11 -6 -101 33 -101 44 0 4 -18 15 -40 25 -23 10
-40 24 -40 33 0 9 -3 14 -6 10 -10 -9 -54 35 -54 55 0 11 -4 16 -10 13 -5 -3
-10 1 -10 9 0 9 -4 16 -10 16 -5 0 -10 7 -10 15 0 8 -5 15 -11 15 -5 0 -7 5
-4 10 3 6 1 10 -5 10 -6 0 -15 11 -20 25 -5 14 -17 28 -25 31 -8 4 -15 12 -15
20 0 8 -4 14 -10 14 -5 0 -10 8 -10 17 0 9 -3 13 -6 10 -4 -3 -19 7 -34 23
-15 16 -30 26 -34 23 -3 -3 -6 1 -6 10 0 9 -4 17 -10 17 -5 0 -10 7 -10 16 0
8 -4 13 -9 10 -5 -3 -14 1 -21 9 -7 8 -19 15 -27 15 -8 0 -12 4 -9 8 2 4 -16
18 -42 31 -26 13 -55 27 -66 33 -14 7 -16 6 -10 -4 6 -10 5 -11 -7 -1 -8 6
-17 12 -21 12 -5 1 -11 2 -15 2 -5 1 -16 0 -27 -1 -10 -1 -16 2 -13 7 7 11
-23 11 -40 0 -6 -4 -14 -1 -16 5 -4 10 -8 10 -15 -1 -8 -12 -13 -12 -25 -2 -9
7 -18 8 -21 3 -3 -6 -20 -12 -38 -14 -18 -3 -42 -9 -52 -13 -15 -7 -18 -5 -12
6 4 8 1 7 -6 -2 -9 -11 -24 -15 -43 -13 -17 2 -47 4 -67 5 -21 1 -38 5 -38 9
0 6 -7 8 -49 12 -11 1 -17 6 -15 10 3 4 -7 13 -21 18 -14 5 -23 14 -20 20 3 5
-3 10 -15 10 -14 0 -19 4 -14 13 4 6 4 9 -1 5 -4 -4 -17 -3 -28 3 -15 9 -18 8
-11 -3 6 -11 5 -11 -8 0 -9 8 -29 14 -45 16 -15 1 -34 5 -41 9 -6 5 -12 5 -12
0 0 -4 -11 -8 -24 -8 -13 0 -22 3 -20 7 3 4 -14 6 -36 4 -22 -2 -40 1 -40 7 0
5 -6 4 -14 -2 -10 -9 -16 -9 -21 -1 -5 8 -11 8 -21 -1 -8 -6 -14 -7 -14 -2 0
12 -30 11 -49 -2 -9 -5 -12 -4 -7 3 7 12 -32 11 -52 -2 -7 -4 -12 -4 -12 1 0
4 -11 8 -25 8 -14 0 -25 -4 -25 -8 0 -4 -8 -3 -18 2 -11 6 -24 6 -32 1 -9 -5
-19 -5 -27 2 -8 6 -13 7 -13 1z m1720 -746 c0 -4 5 -5 11 -2 6 4 17 -1 25 -11
9 -11 13 -13 9 -7 -4 9 -1 11 9 7 9 -3 16 -10 16 -15 0 -5 3 -8 8 -7 14 3 62
-14 62 -23 0 -5 3 -8 8 -8 20 3 32 -2 26 -13 -4 -6 -3 -8 3 -5 6 4 23 -3 39
-15 16 -13 24 -16 20 -8 -5 8 3 3 16 -12 14 -16 31 -28 37 -28 7 0 9 -5 6 -10
-3 -6 2 -13 11 -17 18 -7 59 -43 49 -43 -3 0 3 -10 15 -22 11 -12 20 -28 20
-35 0 -9 5 -11 13 -7 7 5 6 0 -3 -11 -9 -11 -10 -16 -2 -11 12 7 16 -4 13 -31
-1 -7 4 -13 10 -13 7 0 9 -3 6 -7 -4 -3 -1 -16 7 -28 8 -12 11 -27 7 -33 -6
-10 -6 -56 0 -88 4 -25 -3 -44 -16 -44 -13 0 -21 25 -16 53 0 4 -4 6 -9 5 -6
-2 -18 11 -28 27 -9 17 -20 31 -23 33 -4 2 -5 12 -2 22 3 11 0 20 -6 20 -6 0
-11 13 -11 29 0 18 -8 35 -20 44 -11 8 -17 16 -14 20 9 8 -6 48 -16 42 -4 -3
-11 6 -14 20 -4 14 -11 25 -18 25 -6 0 -18 8 -27 19 -9 10 -30 25 -47 34 -17
9 -34 23 -38 32 -3 9 -10 13 -16 10 -5 -3 -10 2 -10 11 0 10 -3 14 -7 11 -4
-4 -20 5 -36 20 -17 16 -27 21 -23 13 4 -8 0 -6 -8 4 -9 11 -16 16 -16 10 0
-5 -5 -2 -10 6 -5 8 -13 15 -17 16 -21 2 -43 18 -43 31 0 8 -4 11 -10 8 -6 -3
-7 1 -4 9 5 14 9 14 35 -1 16 -10 29 -21 29 -26z"/>
</g>
</svg>
